<svg id="Layer_1" data-name="Layer 1" xmlns="http://www.w3.org/2000/svg" viewBox="0 0 1092.2 7054.09"><defs><style>.cls-1{fill:none;stroke:#222;stroke-miterlimit:10;stroke-width:10px;}</style></defs><polyline class="cls-1" points="0 7049.09 971.07 7049.09 971.07 6540.49 121.13 6540.49 121.13 6042.79 971.07 6042.79 971.07 5534.19 121.13 5534.19 121.13 5036.49 971.07 5036.49 971.07 4527.89 121.13 4527.89 121.13 4030.19 971.07 4030.19 971.07 3521.6 121.13 3521.6 121.13 3023.89 971.07 3023.89 971.07 2515.3 121.13 2515.3 121.13 2017.6 971.07 2017.6 971.07 1509 121.13 1509 121.13 1011.3 971.07 1011.3 971.07 502.7 121.13 502.7 121.13 5 1092.19 5"/></svg>